<?xml version="1.0" encoding="UTF-8" standalone="no"?>
<!-- Created with Inkscape (http://www.inkscape.org/) -->

<svg
   version="1.1"
   id="svg1"
   width="1094.8291"
   height="287.99997"
   viewBox="0 0 1094.8291 287.99997"
   sodipodi:docname="Logo_kitch'n_horizontal.svg"
   inkscape:version="1.4.2 (f4327f4, 2025-05-13)"
   xmlns:inkscape="http://www.inkscape.org/namespaces/inkscape"
   xmlns:sodipodi="http://sodipodi.sourceforge.net/DTD/sodipodi-0.dtd"
   xmlns:xlink="http://www.w3.org/1999/xlink"
   xmlns="http://www.w3.org/2000/svg"
   xmlns:svg="http://www.w3.org/2000/svg">
  <defs
     id="defs1">
    <linearGradient
       id="linearGradient3"
       inkscape:collect="always">
      <stop
         style="stop-color:#f6d365;stop-opacity:1;"
         offset="0"
         id="stop3" />
      <stop
         style="stop-color:#e6b325;stop-opacity:0.78039217;"
         offset="0.21661493"
         id="stop5" />
      <stop
         style="stop-color:#7d5d19;stop-opacity:0.19607843;"
         offset="0.93878049"
         id="stop6" />
      <stop
         style="stop-color:#d3b761;stop-opacity:0;"
         offset="1"
         id="stop4" />
    </linearGradient>
    <radialGradient
       inkscape:collect="always"
       xlink:href="#linearGradient3"
       id="radialGradient6"
       cx="772.58582"
       cy="521.37793"
       fx="772.58582"
       fy="521.37793"
       r="547.9151"
       gradientTransform="matrix(3.3239408,0.59234112,-0.11301241,0.634173,-1736.5215,-266.90022)"
       gradientUnits="userSpaceOnUse" />
  </defs>
  <sodipodi:namedview
     id="namedview1"
     pagecolor="#505050"
     bordercolor="#eeeeee"
     borderopacity="1"
     inkscape:showpageshadow="0"
     inkscape:pageopacity="0"
     inkscape:pagecheckerboard="0"
     inkscape:deskcolor="#505050"
     inkscape:zoom="0.5572609"
     inkscape:cx="451.31464"
     inkscape:cy="115.74471"
     inkscape:window-width="1920"
     inkscape:window-height="1009"
     inkscape:window-x="1912"
     inkscape:window-y="-8"
     inkscape:window-maximized="1"
     inkscape:current-layer="g1"
     showgrid="false" />
  <g
     inkscape:groupmode="layer"
     inkscape:label="Image"
     id="g1"
     transform="translate(-225.17099,-377.37794)">
    <path
       style="fill:url(#radialGradient6);fill-opacity:1;stroke:#000000;stroke-width:1.0015748;stroke-dasharray:none;stroke-opacity:1"
       d="m 284.92308,662.45486 -2.92307,-2.92307 v -18.5818 -18.5818 l 98.75,0.25487 98.75,0.25488 0.26121,16.5 c 0.28737,18.15242 -0.64809,22.16648 -5.76121,24.72135 -1.94398,0.97134 -22.92309,1.25245 -94.32693,1.26391 l -91.82692,0.0147 z m -2.92307,-83.57692 v -30.5 h -3.44838 c -5.47849,0 -18.67467,-4.63221 -25.13003,-8.82132 -8.46299,-5.49192 -17.30966,-15.41059 -21.73717,-24.37116 -5.10819,-10.33818 -6.98562,-19.79363 -6.41484,-32.30752 0.74239,-16.27629 6.0035,-28.38627 17.25862,-39.72576 7.03633,-7.08908 12.54878,-10.78705 21.85513,-14.66129 8.85302,-3.68552 17.10834,-5.09552 29.89142,-5.10539 9.68107,-0.007 9.78452,-0.0333 10.79477,-2.69043 1.9406,-5.10415 9.82072,-15.908 15.67792,-21.49482 15.46447,-14.75061 34.82778,-21.82231 59.75256,-21.82231 18.9022,0 33.0425,3.67138 47.88928,12.43395 9.8012,5.78466 20.49418,16.77821 25.18765,25.89565 l 3.81016,7.40154 13.05645,0.55911 c 21.8353,0.93504 34.40143,5.76373 47.45523,18.23526 13.60482,12.99796 19.49161,26.23964 19.54956,43.97449 0.0555,16.99119 -5.30275,30.24366 -17.27325,42.72152 -10.63888,11.0898 -22.69663,17.71754 -35.26694,19.38505 l -4.90814,0.65109 v 30.37117 30.37117 h -99 -99 z m 681.21552,26.48135 c -28.77185,-7.5382 -48.00667,-33.39727 -48.18064,-64.77351 -0.1669,-30.10106 21.42339,-57.74622 49.79471,-63.75936 15.25376,-3.23295 33.02084,-1.0783 46.3139,5.61658 6.729,3.3889 20.7521,16.54695 24.1464,22.65662 l 1.7898,3.22169 -11.2516,5.64289 c -6.9301,3.47556 -11.3979,5.20443 -11.6323,4.5013 -0.994,-2.9822 -8.852,-11.54833 -13.0274,-14.20152 -7.27186,-4.62082 -14.14326,-6.2219 -24.23365,-5.64657 -10.5336,0.6006 -16.68925,3.52105 -23.7741,11.27925 -15.46381,16.93349 -16.28669,43.75368 -1.89201,61.66594 9.349,11.63357 27.476,16.25015 42.19,10.74492 5.9056,-2.20955 15.28026,-10.22644 20.13946,-17.2225 l 1.9399,-2.79293 10.7311,5.02358 c 5.902,2.76298 10.731,5.45344 10.731,5.97881 0,0.52537 -1.9421,3.79658 -4.3158,7.26934 -5.2828,7.72896 -15.8822,16.81799 -24.1908,20.74355 -12.76706,6.03214 -31.3668,7.69664 -45.27797,4.05192 z M 605.68897,548.62794 c 0.10393,-30.6625 0.21643,-59.2375 0.25,-63.5 l 0.061,-7.75 h 12.48466 12.48466 l 0.26534,28.57072 0.26534,28.57071 5.86739,-6.82071 c 3.22706,-3.7514 14.47706,-16.5841 25,-28.51712 l 19.13261,-21.69641 16.37244,-0.0536 c 15.44771,-0.0506 16.29574,0.0452 15.01435,1.6964 -0.74696,0.9625 -6.33114,7.15 -12.4093,13.75 -6.07816,6.6 -16.81876,18.42138 -23.86799,26.26973 l -12.81678,14.26973 2.43452,3.23027 c 1.33899,1.77665 13.31063,17.54085 26.60364,35.03155 13.29302,17.4907 24.16912,32.01435 24.16912,32.27477 0,0.26042 -7.28939,0.34985 -16.19865,0.19872 l -16.19865,-0.27477 -19.11618,-25.43828 c -10.5139,-13.99105 -19.53701,-25.54345 -20.05135,-25.67199 -0.51435,-0.12855 -3.96201,3.21867 -7.66147,7.43827 l -6.72629,7.672 -0.0237,18.25 -0.0237,18.25 h -12.75 -12.75 z m 138.31104,-7.75 v -63.5 h 12.5 12.5 v 63.5 63.5 h -12.5 -12.5 z m 91,10.9447 v -52.5553 l -19.25,0.17964 -19.25,0.17963 -0.28276,-11.12433 -0.28275,-11.12434 h 52.03275 52.03276 l 10e-4,11.25 0.001,11.25 -19.50107,-0.29097 -19.50106,-0.29096 v 52.54096 52.54097 h -13 -13 z m 227.19719,-10.6947 0.3029,-63.25 12.25,-0.28078 12.25,-0.28078 v 24.53078 24.53078 h 27 27 v -24.5 -24.5 h 13 13 v 63.5 63.5 h -13 -13 v -28 -28 h -27 -27 v 28 28 h -12.5529 -12.5529 z m 153.8029,-0.25 v -63.5 h 11.3098 11.3099 l 27.9401,41.90732 c 15.3671,23.04902 28.3018,41.94902 28.7437,42 0.442,0.051 0.6926,-18.69482 0.5569,-41.65732 l -0.2466,-41.75 12.1931,-0.28078 12.1931,-0.28078 v 63.53078 63.53078 h -11.9122 -11.9122 l -23.8093,-35.25 c -13.0951,-19.3875 -25.5468,-37.8375 -27.6705,-41 -2.1237,-3.1625 -3.9421,-5.75 -4.0409,-5.75 -0.099,0 -0.174,18.44989 -0.1672,40.99975 l 0.012,40.99974 -12.25,2.6e-4 -12.25,2.5e-4 z m -30.5985,-32.89598 c -0.3148,-0.82033 0.3661,-5.2025 1.5131,-9.73815 1.1469,-4.53566 2.0854,-11.08597 2.0854,-14.55626 v -6.30961 h 8.5719 8.572 l -0.7028,5.75 c -0.857,7.01106 -3.5118,14.03886 -7.4843,19.81281 -3.4891,5.07119 -3.355,4.97567 -8.2199,5.85361 -2.8655,0.51713 -3.8996,0.32335 -4.3354,-0.8124 z"
       id="path1" />
  </g>
</svg>
